<?xml version="1.0" encoding="UTF-8"?>
<svg version="1.1" xmlns="http://www.w3.org/2000/svg" width="256" height="258">
<path d="M0 0 C3.42707492 2.9070332 6.73344651 5.91433058 10 9 C10.75023437 9.68578125 11.50046875 10.3715625 12.2734375 11.078125 C28.50551066 26.45587852 39.25745853 47.58479822 45 69 C45.33902344 70.2478125 45.67804688 71.495625 46.02734375 72.78125 C53.50691883 106.69784852 46.59494176 141.5021488 29 171 C24.07039102 178.64939324 18.23749143 185.3955973 12 192 C11.26394531 192.81210938 10.52789062 193.62421875 9.76953125 194.4609375 C-12.257664 217.8533023 -45.14958621 229.80735113 -76.7890625 230.93359375 C-110.8859531 231.67755439 -143.60136127 219.21866702 -168.29296875 195.609375 C-169.18628906 194.74828125 -170.07960937 193.8871875 -171 193 C-172.07701172 192.01773438 -172.07701172 192.01773438 -173.17578125 191.015625 C-186.771321 178.26469794 -196.48640462 160.31255982 -202.4375 142.8125 C-202.66018555 142.1618457 -202.88287109 141.51119141 -203.11230469 140.84082031 C-206.96472671 128.63060137 -208.50832139 116.32439496 -208.39111328 103.57275391 C-208.37499733 101.49965712 -208.39110168 99.42850832 -208.41015625 97.35546875 C-208.43080598 84.67158274 -206.558965 72.22408505 -202.4375 60.1875 C-202.18629395 59.45160645 -201.93508789 58.71571289 -201.67626953 57.95751953 C-191.88249277 30.61920456 -173.25535296 7.7447028 -149 -8 C-148.07316406 -8.62261719 -147.14632812 -9.24523437 -146.19140625 -9.88671875 C-102.10894859 -37.71181614 -40.05135781 -32.7348893 0 0 Z " fill="#EFEFEF" transform="translate(208,27)"/>
<path d="M0 0 C1.66149195 1.66149195 1.13669755 3.64016692 1.14717102 5.92579651 C1.15790398 7.52603416 1.15790398 7.52603416 1.16885376 9.15859985 C1.17154266 10.33933075 1.17423157 11.52006165 1.17700195 12.73657227 C1.18357315 13.97232498 1.19014435 15.2080777 1.19691467 16.48127747 C1.21329069 19.88248598 1.22488579 23.28363197 1.2331202 26.68486524 C1.23826768 28.8108013 1.24434374 30.93673297 1.25063133 33.06266594 C1.26969753 39.71658551 1.28392165 46.37049393 1.2922433 53.02443558 C1.30200078 60.69981487 1.32827494 68.3749046 1.36874419 76.05018193 C1.39895428 81.98403843 1.41371707 87.91781223 1.41702431 93.85174412 C1.41937065 97.39450879 1.42827495 100.93696468 1.45348549 104.47964668 C1.48120354 108.43907933 1.47692008 112.3981353 1.4699707 116.35766602 C1.48918579 118.10750793 1.48918579 118.10750793 1.50878906 119.8927002 C1.45611858 128.13454244 0.06200512 133.25754929 -5.25 139.75 C-13.53228106 146.52641178 -22.50090817 147.84619546 -33 147 C-39.40551682 144.86482773 -42.3530986 140.4703521 -46 135 C-46.96971161 127.9188501 -46.30970052 122.70744123 -42 117 C-34.96089896 109.75386658 -23.16541869 107.21260064 -13.375 106.875 C-12.59125 106.91625 -11.8075 106.9575 -11 107 C-11 106.34 -11 105.68 -11 105 C-10.01 104.34 -9.02 103.68 -8 103 C-7.54661087 100.34928902 -7.54661087 100.34928902 -7.62768555 97.20507812 C-7.62145676 95.9904187 -7.61522797 94.77575928 -7.60881042 93.52429199 C-7.61802017 92.20658813 -7.62722992 90.88888428 -7.63671875 89.53125 C-7.63723723 88.17126465 -7.63672 86.81127855 -7.63520813 85.45129395 C-7.6352979 82.59973984 -7.64573724 79.74846817 -7.66381836 76.89697266 C-7.68650603 73.238153 -7.6870503 69.57974618 -7.68030071 65.92087555 C-7.67696238 63.1122062 -7.6835882 60.30363131 -7.69342995 57.49497986 C-7.69916214 55.48856384 -7.69784468 53.48213173 -7.69645691 51.47570801 C-7.70598892 50.26104858 -7.71552094 49.04638916 -7.7253418 47.79492188 C-7.72994919 46.72173706 -7.73455658 45.64855225 -7.73930359 44.54284668 C-7.74682895 41.83230165 -7.74682895 41.83230165 -10 40 C-17.22344389 39.80041345 -24.70186023 41.79632178 -31.74609375 43.21484375 C-32.83785416 43.4306459 -33.92961456 43.64644806 -35.05445862 43.86878967 C-38.51636295 44.55395872 -41.97695768 45.24548815 -45.4375 45.9375 C-48.89472695 46.62459516 -52.3522143 47.31036116 -55.80982971 47.99549866 C-57.95166476 48.42036778 -60.09323449 48.84657751 -62.23448181 49.2743988 C-68.81127955 50.58469002 -75.39829175 51.82161379 -82 53 C-82.6171162 67.84119524 -83.07580833 82.67103953 -83.24609375 97.5234375 C-83.26289105 98.91945415 -83.27970628 100.31547059 -83.29653931 101.71148682 C-83.36348803 107.38816392 -83.426485 113.06484838 -83.47680664 118.74169922 C-83.50864274 122.28838289 -83.54983352 125.83485532 -83.59700203 129.38136673 C-83.62048787 131.34771009 -83.63367594 133.31416794 -83.64659119 135.28060913 C-83.66323318 136.4711087 -83.67987518 137.66160828 -83.69702148 138.88818359 C-83.70732895 139.92735931 -83.71763641 140.96653503 -83.72825623 142.03720093 C-84.36330644 148.96109899 -87.30190824 154.30190824 -92.1875 159.1875 C-100.48440312 164.53439312 -109.29934067 164.96024524 -119 164 C-123.48778172 162.76199125 -126.021112 160.3311837 -128.375 156.375 C-128.91125 155.26125 -129.4475 154.1475 -130 153 C-130.33 152.34 -130.66 151.68 -131 151 C-131.82755474 144.63965073 -131.15803107 140.12468127 -127.58203125 134.7890625 C-123.87433007 130.59615598 -120.2936343 128.47066855 -114.9375 126.9375 C-113.23787109 126.4425 -113.23787109 126.4425 -111.50390625 125.9375 C-107.18077452 124.78080924 -102.83530376 123.75265939 -98.4609375 122.80859375 C-95.74835703 121.91731731 -94.76821972 121.2018079 -93 119 C-92.55593404 117.06143528 -92.55593404 117.06143528 -92.62818909 114.9077301 C-92.62143158 114.0763855 -92.61467407 113.24504089 -92.60771179 112.38850403 C-92.61543106 111.47985092 -92.62315033 110.57119781 -92.63110352 109.63500977 C-92.62733704 108.67539337 -92.62357056 107.71577698 -92.61968994 106.7270813 C-92.61324965 104.64162231 -92.61359481 102.55613399 -92.61987495 100.47067451 C-92.62896066 97.17165042 -92.61879012 93.87319765 -92.60325623 90.57420349 C-92.56308454 81.19425376 -92.56195634 71.81434758 -92.56420898 62.43432617 C-92.56426001 56.69899078 -92.54512806 50.9639632 -92.51487541 45.22871208 C-92.50402077 41.97572593 -92.51619859 38.72331996 -92.52870178 35.47035217 C-92.51979969 33.47835714 -92.50972612 31.48636687 -92.49829102 29.49438477 C-92.50803452 28.58775589 -92.51777802 27.68112701 -92.52781677 26.74702454 C-92.45735403 20.60987497 -92.45735403 20.60987497 -90.09483337 17.45948792 C-87.91148093 15.93832803 -86.33594255 15.23332617 -83.75 14.6484375 C-82.85667969 14.4417041 -81.96335938 14.2349707 -81.04296875 14.02197266 C-80.03878906 13.80847168 -79.03460938 13.5949707 -78 13.375 C-76.92363281 13.13700684 -75.84726563 12.89901367 -74.73828125 12.65380859 C-70.49830903 11.7374384 -66.25116699 10.86271315 -62 10 C-61.02289063 9.80156494 -60.04578125 9.60312988 -59.0390625 9.39868164 C-52.20775594 8.01603104 -45.37206204 6.6570136 -38.53222656 5.31719971 C-36.18734687 4.85768076 -33.84293919 4.39574623 -31.49902344 3.93133545 C-28.14704603 3.26969531 -24.79276365 2.62130562 -21.4375 1.9765625 C-20.43404541 1.77685852 -19.43059082 1.57715454 -18.39672852 1.37139893 C-12.26848939 0.21226372 -6.24530026 -0.55434833 0 0 Z " fill="#C378B6" transform="translate(187,42)"/>
<path d="M0 0 C3.42707492 2.9070332 6.73344651 5.91433058 10 9 C10.75023437 9.68578125 11.50046875 10.3715625 12.2734375 11.078125 C28.50551066 26.45587852 39.25745853 47.58479822 45 69 C45.33902344 70.2478125 45.67804688 71.495625 46.02734375 72.78125 C53.50691883 106.69784852 46.59494176 141.5021488 29 171 C24.07039102 178.64939324 18.23749143 185.3955973 12 192 C11.26394531 192.81210938 10.52789062 193.62421875 9.76953125 194.4609375 C-12.257664 217.8533023 -45.14958621 229.80735113 -76.7890625 230.93359375 C-110.8859531 231.67755439 -143.60136127 219.21866702 -168.29296875 195.609375 C-169.18628906 194.74828125 -170.07960937 193.8871875 -171 193 C-172.07701172 192.01773438 -172.07701172 192.01773438 -173.17578125 191.015625 C-186.771321 178.26469794 -196.48640462 160.31255982 -202.4375 142.8125 C-202.66018555 142.1618457 -202.88287109 141.51119141 -203.11230469 140.84082031 C-206.96472671 128.63060137 -208.50832139 116.32439496 -208.39111328 103.57275391 C-208.37499733 101.49965712 -208.39110168 99.42850832 -208.41015625 97.35546875 C-208.43080598 84.67158274 -206.558965 72.22408505 -202.4375 60.1875 C-202.18629395 59.45160645 -201.93508789 58.71571289 -201.67626953 57.95751953 C-191.88249277 30.61920456 -173.25535296 7.7447028 -149 -8 C-148.07316406 -8.62261719 -147.14632812 -9.24523437 -146.19140625 -9.88671875 C-102.10894859 -37.71181614 -40.05135781 -32.7348893 0 0 Z M-159 11 C-159 11.66 -159 12.32 -159 13 C-159.88570679 13.39880371 -159.88570679 13.39880371 -160.78930664 13.80566406 C-167.38546029 17.36926248 -171.89237175 24.2110949 -176.0625 30.25 C-176.58416748 31.001604 -177.10583496 31.75320801 -177.64331055 32.52758789 C-187.61775951 47.0638368 -194.55136072 62.73464327 -197.4921875 80.15625 C-198 83 -198 83 -199 85 C-201.0309177 119.49829445 -194.27389626 152.93337956 -171.07861328 179.50317383 C-169.7305451 181.01243934 -168.36562279 182.50659964 -167 184 C-166.28328125 184.79921875 -165.5665625 185.5984375 -164.828125 186.421875 C-151.58611919 200.46039244 -134.57580058 210.35410864 -116.2421875 215.9921875 C-113 217 -113 217 -110.59594727 217.99414062 C-101.02257891 221.70356201 -90.55231516 221.40241142 -80.4375 221.375 C-79.68366028 221.37445618 -78.92982056 221.37391235 -78.15313721 221.37335205 C-66.67951927 221.33527824 -55.94077931 220.66552371 -45 217 C-44.32420898 216.78569336 -43.64841797 216.57138672 -42.95214844 216.35058594 C-15.99841413 207.6774171 7.05555257 188.94902992 22 165 C22.53753906 164.20851562 23.07507813 163.41703125 23.62890625 162.6015625 C34.93019541 145.31029502 39.183792 124.58314888 39.29516602 104.25170898 C39.30659522 102.80824917 39.32690056 101.36482852 39.35668945 99.92163086 C39.58187444 88.96304735 38.14642519 79.52262135 35 69 C34.8008902 68.33161606 34.6017804 67.66323212 34.39663696 66.97459412 C25.57008985 37.54616759 6.01528192 12.05069309 -21 -3 C-30.63387416 -8.12430462 -40.41107073 -12.26597318 -51 -15 C-51.81984375 -15.21269531 -52.6396875 -15.42539063 -53.484375 -15.64453125 C-89.62876317 -24.30672083 -131.63304563 -14.61006347 -159 11 Z " fill="#9D88B9" transform="translate(208,27)"/>
</svg>
